<svg aria-hidden="true" style="position: absolute; width: 0; height: 0; overflow: hidden;" version="1.1" xmlns="http://www.w3.org/2000/svg" xmlns:xlink="http://www.w3.org/1999/xlink">
<defs>
<symbol id="icon-email" viewBox="0 0 45 32">
<path stroke-linejoin="miter" stroke-linecap="butt" stroke-miterlimit="4" stroke-width="3.7647" d="M43.294 1.882h-41.412M43.294 1.882v27.294M43.294 1.882l-13.176 13.176M1.882 1.882v27.294M1.882 1.882l13.176 13.176M1.882 29.176h41.412M1.882 29.176l13.176-14.118M43.294 29.176l-13.176-14.118M15.059 15.059l6.198 6.198c0.735 0.735 1.927 0.735 2.662 0l6.198-6.198"></path>
</symbol>
<symbol id="icon-phone" viewBox="0 0 33 32">
<path stroke-linejoin="miter" stroke-linecap="butt" stroke-miterlimit="4" stroke-width="2.9091" d="M11.514 12.969l8.006 8.006c0.49 0.49 1.258 0.566 1.835 0.182l3.372-2.248c1.667-1.111 4.35 3.436 5.644 6.17 0.116 0.245 0.343 0.431 0.451 0.68 0.531 1.224-4.206 3.464-7.158 4.633-0.256 0.102-0.536 0.126-0.805 0.065-10.927-2.477-18.363-15.776-21.075-22.997-0.208-0.554-0.039-1.17 0.406-1.559l3.987-3.489c0.605-0.529 1.524-0.468 2.052 0.137l3.612 4.128c0.325 0.372 0.44 0.883 0.304 1.357l-1.002 3.507c-0.145 0.508-0.003 1.055 0.37 1.428z"></path>
</symbol>
<symbol id="icon-telegram" viewBox="0 0 35 32">
<path stroke-linejoin="miter" stroke-linecap="butt" stroke-miterlimit="4" stroke-width="3.0476" d="M9.905 19.81l0.558-1.115c0.133-0.267 0.342-0.488 0.599-0.637l6.208-3.594c1.488-0.862 3.041 1.017 1.915 2.317l-3.73 4.304c-0.142 0.164-0.248 0.357-0.31 0.566l-2.29 7.747M9.905 19.81l2.95 9.587M9.905 19.81l-7.054-3.527c-0.361-0.181-0.636-0.498-0.764-0.881l-0.108-0.324c-0.255-0.765 0.131-1.597 0.88-1.897l28.209-11.284c0.566-0.226 1.212-0.094 1.643 0.337l0.237 0.237c0.36 0.36 0.517 0.877 0.417 1.376l-5.027 25.136c-0.092 0.461-0.392 0.854-0.813 1.064l-0.086 0.043c-0.479 0.239-1.048 0.21-1.5-0.077l-6.701-4.264c-0.566-0.36-1.301-0.308-1.81 0.129l-4.224 3.62c-0.119 0.102-0.304 0.049-0.35-0.101v0"></path>
</symbol>
<symbol id="icon-viber" viewBox="0 0 30 32">
<path d="M6.864 0.33c2.92-0.256 9.857-0.6 15.4 0.016 3.156 0.351 5.255 1.771 6.541 3.501 1.247 1.678 1.672 3.569 1.672 4.871v12.19c0 2.48-1.527 4.255-3.105 5.394-1.585 1.144-3.456 1.833-4.758 2.145-0.238 0.057-0.469 0.080-0.685 0.080h-8.412l-2.39 2.048c-1.977 1.694-5.031 0.29-5.031-2.314v-1.017c-0.001-0.004-0.004-0.014-0.014-0.029-0.021-0.033-0.062-0.078-0.128-0.117-3.052-1.8-4.983-5.106-5.726-6.858-0.162-0.383-0.227-0.772-0.227-1.139v-11.146c0-2.316 1.112-4.067 2.403-5.268 1.271-1.182 2.784-1.905 3.865-2.241 0.207-0.064 0.405-0.099 0.595-0.116zM7.147 3.364c-0.734 0.233-1.805 0.751-2.668 1.554-0.853 0.794-1.431 1.787-1.431 3.037v11.13c0.635 1.48 2.223 4.073 4.454 5.389 0.896 0.529 1.641 1.523 1.641 2.769v1.019l2.39-2.048c0.552-0.473 1.256-0.734 1.983-0.734h8.405c1.029-0.25 2.494-0.802 3.667-1.648 1.187-0.857 1.841-1.831 1.841-2.923v-12.19c0-0.729-0.261-1.963-1.071-3.053-0.772-1.039-2.101-2.031-4.431-2.29-5.24-0.582-11.93-0.26-14.78-0.010zM5.928 8.069c0.953-0.843 2.41-0.746 3.243 0.216l1.092 1.262c0.503 0.582 0.681 1.377 0.471 2.118l-0.289 1.021c-0.075 0.264-0.002 0.548 0.191 0.743l3.386 3.423c0.258 0.26 0.664 0.301 0.967 0.096l1.214-0.818c0.544-0.366 1.117-0.215 1.502 0.011 0.371 0.217 0.703 0.565 0.982 0.914 0.568 0.712 1.098 1.668 1.458 2.41 0-0 0.001 0.002 0.003 0.006s0.006 0.010 0.010 0.017c0.010 0.016 0.023 0.035 0.042 0.062l0.021 0.029v0c0.034 0.048 0.087 0.122 0.13 0.191 0.102 0.164 0.319 0.553 0.162 1.029-0.127 0.385-0.446 0.68-0.689 0.875-0.276 0.221-0.618 0.438-0.974 0.639-0.716 0.405-1.57 0.793-2.271 1.081-0.41 0.169-0.876 0.216-1.329 0.099-2.886-0.743-5.266-2.814-7.090-5.109-1.832-2.305-3.167-4.912-3.945-6.869-0.354-0.891-0.072-1.869 0.612-2.474l1.101-0.974zM8.018 9.282c-0.277-0.321-0.763-0.353-1.081-0.072l-1.101 0.974c-0.237 0.21-0.306 0.518-0.205 0.769 0.737 1.852 2.003 4.322 3.722 6.484 1.726 2.172 3.848 3.957 6.277 4.582 0.111 0.029 0.24 0.021 0.37-0.032 0.669-0.275 1.461-0.637 2.101-0.999 0.322-0.182 0.585-0.353 0.771-0.502 0.030-0.024 0.056-0.046 0.079-0.066-0.046-0.067-0.117-0.17-0.176-0.291-0.34-0.7-0.813-1.54-1.278-2.125-0.231-0.289-0.418-0.462-0.546-0.541l-1.109 0.747c-0.911 0.614-2.13 0.493-2.902-0.288l-3.386-3.423c-0.579-0.585-0.798-1.437-0.575-2.229l0.289-1.021c0.070-0.247 0.011-0.512-0.157-0.706l-1.092-1.262zM15.363 6.958c1.406-0.234 3.441-0.115 5.020 0.915 1.511 0.986 2.764 2.912 2.476 6.656l1.519 0.117c0.322-4.18-1.093-6.698-3.162-8.049-2.002-1.306-4.462-1.416-6.103-1.142l0.251 1.503zM19.24 9.873c-0.953-0.623-2.236-0.738-3.146-0.625l-0.189-1.512c1.123-0.14 2.81-0.027 4.169 0.861 0.694 0.453 1.295 1.107 1.672 2.008 0.375 0.897 0.509 1.994 0.343 3.314l-1.512-0.189c0.14-1.118 0.013-1.938-0.238-2.538-0.249-0.595-0.638-1.018-1.1-1.32zM16.149 11.525c0.546-0.109 1.237-0.082 1.683 0.19 0.201 0.122 0.36 0.296 0.455 0.566 0.1 0.283 0.146 0.724 0.012 1.395l1.494 0.299c0.171-0.853 0.147-1.587-0.069-2.2-0.221-0.626-0.623-1.071-1.102-1.362-0.912-0.554-2.050-0.526-2.774-0.382l0.299 1.494z"></path>
</symbol>
</defs>
</svg>
