<svg width="17" height="21" viewBox="0 0 17 21" fill="none" xmlns="http://www.w3.org/2000/svg">
<path fill-rule="evenodd" clip-rule="evenodd" d="M3.91632 3.97095C5.13828 2.70455 6.78785 2 8.5 2C10.2121 2 11.8617 2.70455 13.0837 3.97095C14.3068 5.23856 15 6.96519 15 8.77273C15 11.4068 13.3446 13.9739 11.5119 15.9787C10.614 16.961 9.71286 17.7655 9.03538 18.3246C8.83457 18.4903 8.6541 18.6339 8.5 18.7536C8.3459 18.6339 8.16543 18.4903 7.96462 18.3246C7.28714 17.7655 6.38605 16.961 5.48809 15.9787C3.65542 13.9739 2 11.4068 2 8.77273C2 6.96519 2.69318 5.23856 3.91632 3.97095ZM7.93104 20.8224C7.93132 20.8226 7.93157 20.8227 8.5 20L7.93157 20.8227C8.27367 21.0591 8.72633 21.0591 9.06843 20.8227L8.5 20C9.06843 20.8227 9.06868 20.8226 9.06896 20.8224L9.06965 20.8219L9.07156 20.8206L9.07741 20.8165L9.09712 20.8027C9.11376 20.791 9.13732 20.7743 9.16734 20.7527C9.22739 20.7096 9.31333 20.6471 9.42149 20.5661C9.6377 20.4043 9.94324 20.1685 10.3084 19.8672C11.0371 19.2657 12.011 18.3969 12.9881 17.3281C14.9054 15.2307 17 12.1841 17 8.77273C17 6.45735 16.1128 4.22993 14.5229 2.58221C12.9318 0.933272 10.7661 0 8.5 0C6.2339 0 4.06816 0.933272 2.47708 2.58221C0.887171 4.22993 0 6.45735 0 8.77273C0 12.1841 2.09458 15.2307 4.01191 17.3281C4.98895 18.3969 5.96286 19.2657 6.69163 19.8672C7.05676 20.1685 7.3623 20.4043 7.57851 20.5661C7.68667 20.6471 7.77261 20.7096 7.83266 20.7527C7.86268 20.7743 7.88624 20.791 7.90288 20.8027L7.92259 20.8165L7.92844 20.8206L7.93035 20.8219L7.93104 20.8224ZM7 9.5C7 8.67157 7.67157 8 8.5 8C9.32843 8 10 8.67157 10 9.5C10 10.3284 9.32843 11 8.5 11C7.67157 11 7 10.3284 7 9.5ZM8.5 6C6.567 6 5 7.567 5 9.5C5 11.433 6.567 13 8.5 13C10.433 13 12 11.433 12 9.5C12 7.567 10.433 6 8.5 6Z" fill="white"/>
</svg>
