<svg width="23" height="22" viewBox="0 0 23 22" fill="none" xmlns="http://www.w3.org/2000/svg">
<path d="M7.91606 8.91606L13.4203 14.4203C13.7574 14.7574 14.2854 14.8097 14.682 14.5453L17 13C18.1458 12.2361 19.9906 15.3622 20.8803 17.2422C20.9602 17.4108 21.116 17.5382 21.1903 17.7094C21.5554 18.5512 18.2989 20.0911 16.2692 20.8949C16.093 20.9647 15.9006 20.9813 15.7158 20.9394C8.20376 19.2362 3.09145 10.0936 1.22689 5.12918C1.08392 4.74852 1.20007 4.32493 1.50609 4.05717L4.24742 1.6585C4.66306 1.29482 5.29482 1.33694 5.6585 1.75258L8.14148 4.59027C8.365 4.84572 8.44368 5.19712 8.35043 5.52349L7.66165 7.93424C7.56188 8.28343 7.65927 8.65927 7.91606 8.91606Z" stroke="black" stroke-width="2"/>
</svg>
