<svg width="23" height="21" viewBox="0 0 23 21" fill="none" xmlns="http://www.w3.org/2000/svg">
<path d="M6.5 13L6.86597 12.2681C6.9534 12.0932 7.09017 11.9478 7.25936 11.8498L11.3331 9.49134C12.3098 8.92588 13.329 10.1588 12.5899 11.0117L10.1419 13.8363C10.0484 13.9442 9.97906 14.0708 9.93859 14.2078L8.43587 19.2916M6.5 13L8.43587 19.2916M6.5 13L1.87048 10.6852C1.63327 10.5666 1.45288 10.3586 1.36901 10.107L1.29817 9.89452C1.13074 9.39221 1.38386 8.84646 1.87547 8.64981L20.3878 1.24489C20.7592 1.09633 21.1834 1.1834 21.4663 1.46626L21.6216 1.62157C21.858 1.85799 21.9606 2.19693 21.895 2.52479L18.5959 19.0204C18.5354 19.323 18.3386 19.5807 18.0626 19.7187L18.0064 19.7468C17.6922 19.9039 17.3187 19.8846 17.0223 19.696L12.6251 16.8978C12.2538 16.6615 11.7716 16.6958 11.4374 16.9822L8.66556 19.3581C8.58738 19.4251 8.46615 19.39 8.43587 19.2916V19.2916" stroke="black" stroke-width="2"/>
</svg>
