<svg width="20" height="21" viewBox="0 0 20 21" fill="none" xmlns="http://www.w3.org/2000/svg">
<path fill-rule="evenodd" clip-rule="evenodd" d="M4.50434 0.216474C6.4207 0.0482653 10.973 -0.177196 14.6104 0.226957C16.6814 0.457069 18.0592 1.38932 18.9026 2.52438C19.721 3.62557 20 4.8662 20 5.72084V5.73063V5.74048V5.75037V5.76032V5.77031V5.78036V5.79046V5.80061V5.81081V5.82106V5.83136V5.84171V5.85212V5.86257V5.87307V5.88362V5.89421V5.90486V5.91556V5.9263V5.9371V5.94794V5.95883V5.96977V5.98075V5.99179V6.00287V6.01399V6.02517V6.03639V6.04766V6.05898V6.07034V6.08175V6.0932V6.1047V6.11625V6.12784V6.13947V6.15116V6.16288V6.17466V6.18647V6.19834V6.21024V6.22219V6.23419V6.24623V6.25831V6.27043V6.2826V6.29481V6.30707V6.31937V6.33171V6.34409V6.35652V6.36899V6.38149V6.39405V6.40664V6.41928V6.43195V6.44467V6.45743V6.47023V6.48307V6.49595V6.50887V6.52183V6.53483V6.54787V6.56095V6.57407V6.58723V6.60043V6.61367V6.62694V6.64026V6.65361V6.667V6.68043V6.6939V6.70741V6.72095V6.73453V6.74815V6.7618V6.77549V6.78922V6.80299V6.81679V6.83063V6.8445V6.85841V6.87235V6.88634V6.90035V6.9144V6.92849V6.94261V6.95677V6.97096V6.98518V6.99944V7.01374V7.02807V7.04243V7.05682V7.07125V7.08571V7.1002V7.11473V7.12929V7.14388V7.15851V7.17317V7.18785V7.20257V7.21733V7.23211V7.24693V7.26177V7.27665V7.29156V7.3065V7.32147V7.33647V7.3515V7.36656V7.38164V7.39676V7.41191V7.42709V7.4423V7.45753V7.4728V7.48809V7.50341V7.51876V7.53414V7.54955V7.56498V7.58044V7.59593V7.61145V7.62699V7.64256V7.65816V7.67378V7.68943V7.7051V7.72081V7.73654V7.75229V7.76807V7.78387V7.7997V7.81556V7.83144V7.84734V7.86327V7.87922V7.8952V7.9112V7.92723V7.94328V7.95935V7.97544V7.99156V8.00771V8.02387V8.04006V8.05627V8.0725V8.08875V8.10503V8.12133V8.13765V8.15399V8.17035V8.18674V8.20314V8.21957V8.23601V8.25248V8.26897V8.28547V8.302V8.31855V8.33511V8.3517V8.36831V8.38493V8.40157V8.41823V8.43491V8.45161V8.46833V8.48507V8.50182V8.51859V8.53538V8.55218V8.56901V8.58585V8.6027V8.61958V8.63647V8.65337V8.6703V8.68724V8.70419V8.72116V8.73815V8.75515V8.77216V8.7892V8.80624V8.8233V8.84038V8.85747V8.87457V8.89169V8.90882V8.92597V8.94313V8.9603V8.97748V8.99468V9.01189V9.02912V9.04635V9.0636V9.08086V9.09814V9.11542V9.13272V9.15002V9.16734V9.18467V9.20201V9.21937V9.23673V9.2541V9.27148V9.28888V9.30628V9.32369V9.34111V9.35855V9.37599V9.39344V9.4109V9.42836V9.44584V9.46333V9.48082V9.49832V9.51583V9.53334V9.55087V9.5684V9.58594V9.60348V9.62104V9.6386V9.65616V9.67373V9.69131V9.7089V9.72649V9.74408V9.76168V9.77929V9.7969V9.81452V9.83214V9.84977V9.8674V9.88503V9.90267V9.92031V9.93796V9.95561V9.97327V9.99092V10.0086V10.0262V10.0439V10.0616V10.0793V10.0969V10.1146V10.1323V10.15V10.1676V10.1853V10.203V10.2207V10.2384V10.2561V10.2738V10.2914V10.3091V10.3268V10.3445V10.3622V10.3799V10.3976V10.4152V10.4329V10.4506V10.4683V10.486V10.5037V10.5213V10.539V10.5567V10.5744V10.592V10.6097V10.6274V10.645V10.6627V10.6803V10.698V10.7156V10.7333V10.7509V10.7685V10.7862V10.8038V10.8214V10.839V10.8566V10.8742V10.8918V10.9094V10.927V10.9446V10.9622V10.9798V10.9973V11.0149V11.0324V11.05V11.0675V11.085V11.1026V11.1201V11.1376V11.1551V11.1726V11.1901V11.2075V11.225V11.2425V11.2599V11.2773V11.2948V11.3122V11.3296V11.347V11.3644V11.3818V11.3992V11.4165V11.4339V11.4512V11.4685V11.4858V11.5032V11.5204V11.5377V11.555V11.5723V11.5895V11.6067V11.624V11.6412V11.6584V11.6755V11.6927V11.7099V11.727V11.7441V11.7613V11.7784V11.7954V11.8125V11.8296V11.8466V11.8637V11.8807V11.8977V11.9146V11.9316V11.9486V11.9655V11.9824V11.9993V12.0162V12.0331V12.0499V12.0668V12.0836V12.1004V12.1172V12.1339V12.1507V12.1674V12.1841V12.2008V12.2175V12.2342V12.2508V12.2674V12.284V12.3006V12.3172V12.3337V12.3502V12.3667V12.3832V12.3997V12.4161V12.4326V12.449V12.4653V12.4817V12.498V12.5143V12.5306V12.5469V12.5632V12.5794V12.5956V12.6118V12.6279V12.6441V12.6602V12.6763V12.6924V12.7084V12.7244V12.7404V12.7564V12.7723V12.7883V12.8042V12.82V12.8359V12.8517V12.8675V12.8833V12.899V12.9148V12.9305V12.9461V12.9618V12.9774V12.993V13.0085V13.0241V13.0396V13.0551V13.0705V13.086V13.1014V13.1167V13.1321V13.1474V13.1627V13.1779V13.1932V13.2084V13.2235V13.2387V13.2538V13.2689V13.2839V13.299V13.314V13.3289V13.3439V13.3588V13.3736V13.3885V13.4033V13.4181V13.4328V13.4475V13.4622V13.4768V13.4915V13.5061V13.5206V13.5351V13.5496V13.5641V13.5785V13.5929V13.6072V13.6216V13.6358V13.6501V13.6643V13.6785V13.6926V13.7068V13.7208C20 15.3486 18.9976 16.5134 17.9623 17.2607C16.9223 18.0114 15.6942 18.4633 14.8397 18.6686C14.6833 18.7062 14.5322 18.7208 14.3902 18.7208H8.86992L7.30158 20.0651C6.00424 21.1771 4 20.2553 4 18.5466V17.8794C3.99933 17.8768 3.9971 17.8705 3.99062 17.8603C3.97708 17.8388 3.9498 17.809 3.90691 17.7837C1.90411 16.6025 0.636553 14.4328 0.149055 13.283C0.0426231 13.0319 0 12.7766 0 12.5354V12.5261V12.5167V12.5072V12.4977V12.4882V12.4786V12.469V12.4594V12.4497V12.44V12.4302V12.4204V12.4105V12.4006V12.3907V12.3807V12.3707V12.3607V12.3506V12.3404V12.3303V12.3201V12.3098V12.2995V12.2892V12.2789V12.2685V12.258V12.2475V12.237V12.2265V12.2159V12.2053V12.1946V12.1839V12.1732V12.1624V12.1516V12.1407V12.1298V12.1189V12.108V12.097V12.0859V12.0749V12.0638V12.0526V12.0415V12.0303V12.019V12.0077V11.9964V11.9851V11.9737V11.9623V11.9508V11.9393V11.9278V11.9163V11.9047V11.8931V11.8814V11.8697V11.858V11.8462V11.8344V11.8226V11.8108V11.7989V11.787V11.775V11.763V11.751V11.739V11.7269V11.7148V11.7026V11.6904V11.6782V11.666V11.6537V11.6414V11.6291V11.6167V11.6043V11.5919V11.5794V11.567V11.5544V11.5419V11.5293V11.5167V11.5041V11.4914V11.4787V11.466V11.4533V11.4405V11.4277V11.4148V11.402V11.3891V11.3761V11.3632V11.3502V11.3372V11.3242V11.3111V11.298V11.2849V11.2717V11.2586V11.2454V11.2321V11.2189V11.2056V11.1923V11.179V11.1656V11.1522V11.1388V11.1254V11.1119V11.0984V11.0849V11.0714V11.0578V11.0442V11.0306V11.017V11.0033V10.9896V10.9759V10.9622V10.9484V10.9346V10.9208V10.907V10.8931V10.8793V10.8654V10.8514V10.8375V10.8235V10.8095V10.7955V10.7815V10.7674V10.7533V10.7392V10.7251V10.7109V10.6968V10.6826V10.6684V10.6541V10.6399V10.6256V10.6113V10.597V10.5826V10.5683V10.5539V10.5395V10.5251V10.5106V10.4962V10.4817V10.4672V10.4526V10.4381V10.4235V10.409V10.3944V10.3798V10.3651V10.3505V10.3358V10.3211V10.3064V10.2917V10.2769V10.2622V10.2474V10.2326V10.2178V10.2029V10.1881V10.1732V10.1583V10.1434V10.1285V10.1136V10.0986V10.0836V10.0687V10.0537V10.0386V10.0236V10.0086V9.99351V9.97843V9.96334V9.94823V9.9331V9.91797V9.90281V9.88765V9.87247V9.85727V9.84206V9.82684V9.8116V9.79635V9.78108V9.7658V9.75051V9.73521V9.71989V9.70456V9.68921V9.67386V9.65849V9.6431V9.62771V9.6123V9.59688V9.58145V9.56601V9.55056V9.53509V9.51962V9.50413V9.48863V9.47312V9.45759V9.44206V9.42652V9.41097V9.3954V9.37983V9.36425V9.34865V9.33305V9.31743V9.30181V9.28618V9.27054V9.25488V9.23923V9.22356V9.20788V9.19219V9.1765V9.16079V9.14508V9.12936V9.11363V9.0979V9.08215V9.0664V9.05064V9.03488V9.0191V9.00332V8.98754V8.97174V8.95594V8.94013V8.92432V8.9085V8.89267V8.87684V8.861V8.84516V8.82931V8.81345V8.79759V8.78173V8.76585V8.74998V8.7341V8.71821V8.70232V8.68643V8.67053V8.65462V8.63872V8.6228V8.60689V8.59097V8.57505V8.55912V8.54319V8.52726V8.51132V8.49539V8.47944V8.4635V8.44755V8.4316V8.41565V8.3997V8.38375V8.36779V8.35183V8.33587V8.31991V8.30394V8.28798V8.27201V8.25605V8.24008V8.22411V8.20814V8.19217V8.17621V8.16024V8.14427V8.1283V8.11233V8.09636V8.08039V8.06442V8.04846V8.03249V8.01653V8.00056V7.9846V7.96864V7.95268V7.93672V7.92076V7.90481V7.88886V7.87291V7.85696V7.84102V7.82507V7.80913V7.7932V7.77726V7.76133V7.7454V7.72948V7.71356V7.69764V7.68173V7.66582V7.64991V7.63401V7.61811V7.60222V7.58633V7.57045V7.55457V7.5387V7.52283V7.50697V7.49111V7.47526V7.45941V7.44357V7.42773V7.4119V7.39608V7.38026V7.36445V7.34865V7.33285V7.31706V7.30128V7.2855V7.26973V7.25397V7.23821V7.22246V7.20673V7.19099V7.17527V7.15955V7.14385V7.12815V7.11246V7.09677V7.0811V7.06544V7.04978V7.03413V7.0185V7.00287V6.98725V6.97164V6.95604V6.94046V6.92488V6.90931V6.89375V6.8782V6.86266V6.84714V6.83162V6.81612V6.80062V6.78514V6.76967V6.75421V6.73876V6.72333V6.7079V6.69249V6.67709V6.6617V6.64633V6.63096V6.61561V6.60027V6.58495V6.56964V6.55434V6.53905V6.52378V6.50852V6.49328V6.47805V6.46283V6.44763V6.43244V6.41727V6.40211V6.38696V6.37183V6.35672V6.34162V6.32653V6.31146V6.29641V6.28137V6.26635V6.25134V6.23635V6.22137V6.20642V6.19147V6.17655V6.16164V6.14674V6.13187V6.11701V6.10217V6.08734V6.07254V6.05774V6.04297V6.02822V6.01348V5.99876V5.98406V5.96938V5.95472V5.94007V5.92545V5.91084V5.89625V5.88168V5.86713V5.8526V5.83809V5.8236V5.80912V5.79467V5.78024V5.76583V5.75144V5.73706V5.72271V5.70838V5.69407V5.67978V5.66552V5.65127V5.63704V5.62284V5.60866V5.5945V5.58036V5.56624V5.55215V5.53808V5.52403V5.51V5.49599V5.48201V5.46805V5.45411V5.4402V5.42631V5.41245V5.3986V5.38478V5.37099V5.35722V5.34347V5.32974V5.31605V5.30237V5.28872V5.27509V5.26149V5.24792V5.23437V5.22084C0 3.70093 0.729715 2.55167 1.57703 1.76348C2.41092 0.987772 3.40376 0.513294 4.1136 0.292646C4.24933 0.250454 4.37958 0.227425 4.50434 0.216474ZM4.69023 2.20785C4.20821 2.36049 3.50579 2.70083 2.93923 3.22786C2.37939 3.74864 2 4.40072 2 5.22084V5.23437V5.24792V5.26149V5.27509V5.28872V5.30237V5.31605V5.32974V5.34347V5.35722V5.37099V5.38478V5.3986V5.41245V5.42631V5.4402V5.45411V5.46805V5.48201V5.49599V5.51V5.52403V5.53808V5.55215V5.56624V5.58036V5.5945V5.60866V5.62284V5.63704V5.65127V5.66552V5.67978V5.69407V5.70838V5.72271V5.73706V5.75144V5.76583V5.78024V5.79467V5.80912V5.8236V5.83809V5.8526V5.86713V5.88168V5.89625V5.91084V5.92545V5.94007V5.95472V5.96938V5.98406V5.99876V6.01348V6.02822V6.04297V6.05774V6.07254V6.08734V6.10217V6.11701V6.13187V6.14674V6.16164V6.17655V6.19147V6.20642V6.22137V6.23635V6.25134V6.26635V6.28137V6.29641V6.31146V6.32653V6.34162V6.35672V6.37183V6.38696V6.40211V6.41727V6.43244V6.44763V6.46283V6.47805V6.49328V6.50852V6.52378V6.53905V6.55434V6.56964V6.58495V6.60027V6.61561V6.63096V6.64633V6.6617V6.67709V6.69249V6.7079V6.72333V6.73876V6.75421V6.76967V6.78514V6.80062V6.81612V6.83162V6.84714V6.86266V6.8782V6.89375V6.90931V6.92488V6.94046V6.95604V6.97164V6.98725V7.00287V7.0185V7.03413V7.04978V7.06544V7.0811V7.09677V7.11246V7.12815V7.14385V7.15955V7.17527V7.19099V7.20673V7.22246V7.23821V7.25397V7.26973V7.2855V7.30128V7.31706V7.33285V7.34865V7.36445V7.38026V7.39608V7.4119V7.42773V7.44357V7.45941V7.47526V7.49111V7.50697V7.52283V7.5387V7.55457V7.57045V7.58633V7.60222V7.61811V7.63401V7.64991V7.66582V7.68173V7.69764V7.71356V7.72948V7.7454V7.76133V7.77726V7.7932V7.80913V7.82507V7.84102V7.85696V7.87291V7.88886V7.90481V7.92076V7.93672V7.95268V7.96864V7.9846V8.00056V8.01653V8.03249V8.04846V8.06442V8.08039V8.09636V8.11233V8.1283V8.14427V8.16024V8.17621V8.19217V8.20814V8.22411V8.24008V8.25605V8.27201V8.28798V8.30394V8.31991V8.33587V8.35183V8.36779V8.38375V8.3997V8.41565V8.4316V8.44755V8.4635V8.47944V8.49539V8.51132V8.52726V8.54319V8.55912V8.57505V8.59097V8.60689V8.6228V8.63872V8.65462V8.67053V8.68643V8.70232V8.71821V8.7341V8.74998V8.76585V8.78173V8.79759V8.81345V8.82931V8.84516V8.861V8.87684V8.89267V8.9085V8.92432V8.94013V8.95594V8.97174V8.98754V9.00332V9.0191V9.03488V9.05064V9.0664V9.08215V9.0979V9.11363V9.12936V9.14508V9.16079V9.1765V9.19219V9.20788V9.22356V9.23923V9.25488V9.27054V9.28618V9.30181V9.31743V9.33305V9.34865V9.36425V9.37983V9.3954V9.41097V9.42652V9.44206V9.45759V9.47312V9.48863V9.50413V9.51962V9.53509V9.55056V9.56601V9.58145V9.59688V9.6123V9.62771V9.6431V9.65849V9.67386V9.68921V9.70456V9.71989V9.73521V9.75051V9.7658V9.78108V9.79635V9.8116V9.82684V9.84206V9.85727V9.87247V9.88765V9.90281V9.91797V9.9331V9.94823V9.96334V9.97843V9.99351V10.0086V10.0236V10.0386V10.0537V10.0687V10.0836V10.0986V10.1136V10.1285V10.1434V10.1583V10.1732V10.1881V10.2029V10.2178V10.2326V10.2474V10.2622V10.2769V10.2917V10.3064V10.3211V10.3358V10.3505V10.3651V10.3798V10.3944V10.409V10.4235V10.4381V10.4526V10.4672V10.4817V10.4962V10.5106V10.5251V10.5395V10.5539V10.5683V10.5826V10.597V10.6113V10.6256V10.6399V10.6541V10.6684V10.6826V10.6968V10.7109V10.7251V10.7392V10.7533V10.7674V10.7815V10.7955V10.8095V10.8235V10.8375V10.8514V10.8654V10.8793V10.8931V10.907V10.9208V10.9346V10.9484V10.9622V10.9759V10.9896V11.0033V11.017V11.0306V11.0442V11.0578V11.0714V11.0849V11.0984V11.1119V11.1254V11.1388V11.1522V11.1656V11.179V11.1923V11.2056V11.2189V11.2321V11.2454V11.2586V11.2717V11.2849V11.298V11.3111V11.3242V11.3372V11.3502V11.3632V11.3761V11.3891V11.402V11.4148V11.4277V11.4405V11.4533V11.466V11.4787V11.4914V11.5041V11.5167V11.5293V11.5419V11.5544V11.567V11.5794V11.5919V11.6043V11.6167V11.6291V11.6414V11.6537V11.666V11.6782V11.6904V11.7026V11.7148V11.7269V11.739V11.751V11.763V11.775V11.787V11.7989V11.8108V11.8226V11.8344V11.8462V11.858V11.8697V11.8814V11.8931V11.9047V11.9163V11.9278V11.9393V11.9508V11.9623V11.9737V11.9851V11.9964V12.0077V12.019V12.0303V12.0415V12.0526V12.0638V12.0749V12.0859V12.097V12.108V12.1189V12.1298V12.1407V12.1516V12.1624V12.1732V12.1839V12.1946V12.2053V12.2159V12.2265V12.237V12.2475V12.258V12.2685V12.2789V12.2892V12.2995V12.3098V12.3201V12.3303V12.3404V12.3506V12.3607V12.3707V12.3807V12.3907V12.4006V12.4105V12.4204V12.4302V12.44V12.4497V12.4594V12.469V12.4786V12.4882V12.4977V12.5072V12.5167V12.5248C2.41666 13.496 3.45858 15.1974 4.92293 16.061C5.51102 16.4079 6 17.0603 6 17.878V18.5466L7.56834 17.2023C7.93083 16.8916 8.3925 16.7208 8.86992 16.7208H14.3854C15.0609 16.5569 16.0224 16.1944 16.7917 15.6391C17.5708 15.0768 18 14.4378 18 13.7208V13.7068V13.6926V13.6785V13.6643V13.6501V13.6358V13.6216V13.6072V13.5929V13.5785V13.5641V13.5496V13.5351V13.5206V13.5061V13.4915V13.4768V13.4622V13.4475V13.4328V13.4181V13.4033V13.3885V13.3736V13.3588V13.3439V13.3289V13.314V13.299V13.2839V13.2689V13.2538V13.2387V13.2235V13.2084V13.1932V13.1779V13.1627V13.1474V13.1321V13.1167V13.1014V13.086V13.0705V13.0551V13.0396V13.0241V13.0085V12.993V12.9774V12.9618V12.9461V12.9305V12.9148V12.899V12.8833V12.8675V12.8517V12.8359V12.82V12.8042V12.7883V12.7723V12.7564V12.7404V12.7244V12.7084V12.6924V12.6763V12.6602V12.6441V12.6279V12.6118V12.5956V12.5794V12.5632V12.5469V12.5306V12.5143V12.498V12.4817V12.4653V12.449V12.4326V12.4161V12.3997V12.3832V12.3667V12.3502V12.3337V12.3172V12.3006V12.284V12.2674V12.2508V12.2342V12.2175V12.2008V12.1841V12.1674V12.1507V12.1339V12.1172V12.1004V12.0836V12.0668V12.0499V12.0331V12.0162V11.9993V11.9824V11.9655V11.9486V11.9316V11.9146V11.8977V11.8807V11.8637V11.8466V11.8296V11.8125V11.7954V11.7784V11.7613V11.7441V11.727V11.7099V11.6927V11.6755V11.6584V11.6412V11.624V11.6067V11.5895V11.5723V11.555V11.5377V11.5204V11.5032V11.4858V11.4685V11.4512V11.4339V11.4165V11.3992V11.3818V11.3644V11.347V11.3296V11.3122V11.2948V11.2773V11.2599V11.2425V11.225V11.2075V11.1901V11.1726V11.1551V11.1376V11.1201V11.1026V11.085V11.0675V11.05V11.0324V11.0149V10.9973V10.9798V10.9622V10.9446V10.927V10.9094V10.8918V10.8742V10.8566V10.839V10.8214V10.8038V10.7862V10.7685V10.7509V10.7333V10.7156V10.698V10.6803V10.6627V10.645V10.6274V10.6097V10.592V10.5744V10.5567V10.539V10.5213V10.5037V10.486V10.4683V10.4506V10.4329V10.4152V10.3976V10.3799V10.3622V10.3445V10.3268V10.3091V10.2914V10.2738V10.2561V10.2384V10.2207V10.203V10.1853V10.1676V10.15V10.1323V10.1146V10.0969V10.0793V10.0616V10.0439V10.0262V10.0086V9.99092V9.97327V9.95561V9.93796V9.92031V9.90267V9.88503V9.8674V9.84977V9.83214V9.81452V9.7969V9.77929V9.76168V9.74408V9.72649V9.7089V9.69131V9.67373V9.65616V9.6386V9.62104V9.60348V9.58594V9.5684V9.55087V9.53334V9.51583V9.49832V9.48082V9.46333V9.44584V9.42836V9.4109V9.39344V9.37599V9.35855V9.34111V9.32369V9.30628V9.28888V9.27148V9.2541V9.23673V9.21937V9.20201V9.18467V9.16734V9.15002V9.13272V9.11542V9.09814V9.08086V9.0636V9.04635V9.02912V9.01189V8.99468V8.97748V8.9603V8.94313V8.92597V8.90882V8.89169V8.87457V8.85747V8.84038V8.8233V8.80624V8.7892V8.77216V8.75515V8.73815V8.72116V8.70419V8.68724V8.6703V8.65337V8.63647V8.61958V8.6027V8.58585V8.56901V8.55218V8.53538V8.51859V8.50182V8.48507V8.46833V8.45161V8.43491V8.41823V8.40157V8.38493V8.36831V8.3517V8.33511V8.31855V8.302V8.28547V8.26897V8.25248V8.23601V8.21957V8.20314V8.18674V8.17035V8.15399V8.13765V8.12133V8.10503V8.08875V8.0725V8.05627V8.04006V8.02387V8.00771V7.99156V7.97544V7.95935V7.94328V7.92723V7.9112V7.8952V7.87922V7.86327V7.84734V7.83144V7.81556V7.7997V7.78387V7.76807V7.75229V7.73654V7.72081V7.7051V7.68943V7.67378V7.65816V7.64256V7.62699V7.61145V7.59593V7.58044V7.56498V7.54955V7.53414V7.51876V7.50341V7.48809V7.4728V7.45753V7.4423V7.42709V7.41191V7.39676V7.38164V7.36656V7.3515V7.33647V7.32147V7.3065V7.29156V7.27665V7.26177V7.24693V7.23211V7.21733V7.20257V7.18785V7.17317V7.15851V7.14388V7.12929V7.11473V7.1002V7.08571V7.07125V7.05682V7.04243V7.02807V7.01374V6.99944V6.98518V6.97096V6.95677V6.94261V6.92849V6.9144V6.90035V6.88634V6.87235V6.85841V6.8445V6.83063V6.81679V6.80299V6.78922V6.77549V6.7618V6.74815V6.73453V6.72095V6.70741V6.6939V6.68043V6.667V6.65361V6.64026V6.62694V6.61367V6.60043V6.58723V6.57407V6.56095V6.54787V6.53483V6.52183V6.50887V6.49595V6.48307V6.47023V6.45743V6.44467V6.43195V6.41928V6.40664V6.39405V6.38149V6.36899V6.35652V6.34409V6.33171V6.31937V6.30707V6.29481V6.2826V6.27043V6.25831V6.24623V6.23419V6.22219V6.21024V6.19834V6.18647V6.17466V6.16288V6.15116V6.13947V6.12784V6.11625V6.1047V6.0932V6.08175V6.07034V6.05898V6.04766V6.03639V6.02517V6.01399V6.00287V5.99179V5.98075V5.96977V5.95883V5.94794V5.9371V5.9263V5.91556V5.90486V5.89421V5.88362V5.87307V5.86257V5.85212V5.84171V5.83136V5.82106V5.81081V5.80061V5.79046V5.78036V5.77031V5.76032V5.75037V5.74048V5.73063V5.72084C18 5.24215 17.829 4.43278 17.2974 3.7173C16.7908 3.03569 15.9186 2.38461 14.3896 2.21472C10.951 1.83267 6.56038 2.04438 4.69023 2.20785ZM3.88998 5.2952C4.51521 4.74214 5.47167 4.8059 6.01797 5.43706L6.7347 6.26513C7.06504 6.64679 7.18128 7.16901 7.04399 7.65476L6.85454 8.3251C6.80555 8.49841 6.85356 8.68467 6.98022 8.81271L9.2025 11.0593C9.37156 11.2302 9.63809 11.2566 9.8373 11.1224L10.6341 10.5854C10.9909 10.3449 11.367 10.4446 11.6201 10.5926C11.8633 10.7349 12.0814 10.9635 12.2642 11.1926C12.6371 11.6601 12.985 12.2873 13.2211 12.7739C13.2211 12.7738 13.2217 12.775 13.2232 12.7777C13.2247 12.7803 13.2268 12.784 13.2299 12.789C13.2365 12.7994 13.2451 12.8122 13.2575 12.83L13.2712 12.8493L13.2712 12.8494C13.2936 12.881 13.3281 12.9298 13.3563 12.975C13.4234 13.0826 13.5659 13.3378 13.4627 13.6504C13.3794 13.9028 13.1701 14.0966 13.0105 14.2246C12.8293 14.3698 12.6049 14.512 12.3711 14.6441C11.9014 14.9096 11.3405 15.1644 10.8808 15.3536C10.6117 15.4643 10.3062 15.4952 10.0084 15.4185C8.1145 14.9312 6.55277 13.5718 5.35535 12.0656C4.15305 10.5532 3.27714 8.84192 2.76625 7.55761C2.53375 6.97313 2.71892 6.33107 3.16769 5.93411L3.88998 5.2952ZM5.26186 6.0915C5.07976 5.88112 4.76094 5.85986 4.55253 6.04422L3.83024 6.68312C3.67463 6.82077 3.62969 7.02272 3.69544 7.18799C4.17901 8.40364 5.01004 10.0243 6.13813 11.4433C7.27111 12.8685 8.66324 14.0398 10.2576 14.4501C10.3306 14.4689 10.4154 14.4638 10.5003 14.4288C10.9394 14.2482 11.4589 14.011 11.8791 13.7735C12.0902 13.6542 12.263 13.5421 12.385 13.4444C12.4048 13.4285 12.4219 13.414 12.4366 13.4011C12.4061 13.3573 12.3597 13.2894 12.3214 13.2104C12.0984 12.7508 11.7882 12.1995 11.4824 11.8162C11.3311 11.6265 11.2081 11.513 11.124 11.4611L10.3962 11.9516C9.79827 12.3546 8.9985 12.275 8.49156 11.7625L6.26928 9.51597C5.88931 9.13185 5.74529 8.57306 5.89223 8.05313L6.08169 7.38278C6.12745 7.22087 6.08871 7.0468 5.97859 6.91958L5.26186 6.0915ZM10.0822 4.56649C11.0051 4.41267 12.3405 4.49088 13.3768 5.16704C14.3685 5.81414 15.1905 7.07783 15.0015 9.53495L15.9985 9.61164C16.2095 6.86876 15.2815 5.21579 13.9232 4.32955C12.6095 3.47237 10.9949 3.40058 9.9178 3.5801L10.0822 4.56649ZM12.6264 6.47937C12.001 6.07048 11.1587 5.99495 10.562 6.06953L10.438 5.07725C11.1747 4.98516 12.2823 5.05963 13.1736 5.6424C13.6287 5.93998 14.0235 6.36859 14.2707 6.96032C14.5166 7.5487 14.6044 8.26896 14.4961 9.13541L13.5039 9.01137C13.5956 8.27781 13.5126 7.73974 13.348 7.34583C13.1848 6.95527 12.9296 6.67763 12.6264 6.47937ZM10.5981 7.56354C10.9567 7.49181 11.4098 7.51001 11.7029 7.68808C11.8345 7.76803 11.9393 7.88226 12.0018 8.05967C12.0673 8.24553 12.0977 8.535 12.0097 8.97519L12.9903 9.17131C13.1023 8.6115 13.0869 8.13014 12.945 7.72746C12.8002 7.31633 12.5363 7.02431 12.2221 6.83342C11.6236 6.46983 10.8766 6.48802 10.4019 6.58296L10.5981 7.56354Z" fill="black"/>
</svg>
